:SAMPLES-PER-SECOND 30
:FULLY-SPECIFIED
:DEGREES
342
root  34.73704781 36.51290353 -14.82714405 8.161818504 -3.000899553 3.498037338
lowerback  -7.800400257 -0.3341290951 -0.4046520591
upperback  -3.583960056 -0.01731039956 -3.033580065
thorax  0.6697729826 0.126760006 -2.901910067
lowerneck  -14.54409981 2.542089939 2.367189884
upperneck  17.53319931 2.542789936 4.098259926
head  7.797709942 1.927270055 1.262580037
lclavicle  0 -4.497500157e-015 -2.743230041e-014
lhumerus  -46.32300186 27.0951004 66.98880005
lradius  0.001198767219 -6.507048965e-006 31.02778244
lwrist  4.824992743e-007 -3.790274832e-007 -25.60689926
lhand  -4.405300586e-031 -36.72040176 -10.72439957
lfingers  90 7.125020027 -90
lthumb  94.74225044 -25.56571091 100.8814038
rclavicle  0 -4.497500157e-015 -2.743230041e-014
rhumerus  -57.23849869 -30.25799751 -47.79109955
rradius  -5.16745672e-007 2.214343908e-008 62.14120102
rwrist  -0.0001064338358 0.02974390797 -169.7350006
rhand  -1.775242907e-031 5.986219883 -7.881830215
rfingers  -90 -7.125020027 -90
rthumb  -84.88329923 -8.341505645 -58.31643225
rfemur  -11.53555202 15.82134247 13.66700077
rtibia  -1.268555045 -0.3470396996 20.85875702
rfoot  0.03459073603 -20.87751007 -37.51511765
rtoes  4.099939364 19.59211694 -102.066185
lfemur  -7.16040802 -17.11006355 -20.29618835
ltibia  3.091236591 -0.3274482489 13.8779211
lfoot  0.7339197993 -24.44842339 36.30995941
ltoes  -8.506763157 -18.16811184 -115.6267749
343
root  34.7356601 36.51587419 -14.82373636 8.157743454 -2.932455063 3.497796297
lowerback  -7.771720409 -0.3291930556 -0.4289592206
upperback  -3.584880114 -0.01083870046 -3.017829895
thorax  0.6534199715 0.1298809946 -2.871200085
lowerneck  -14.54510021 2.541209936 2.376909971
upperneck  17.49939919 2.539069891 4.095119953
head  7.786960125 1.924510002 1.258870006
lclavicle  0 -4.497500157e-015 -2.743230041e-014
lhumerus  -46.24240112 27.04940033 67.07060242
lradius  0.009844671004 -6.507048965e-006 31.01225853
lwrist  4.824992743e-007 -3.790274832e-007 -25.50489998
lhand  -4.405300586e-031 -36.72040176 -10.72439957
lfingers  90 7.125020027 -90
lthumb  94.74225044 -25.56571091 100.8814038
rclavicle  0 -4.497500157e-015 -2.743230041e-014
rhumerus  -57.13639832 -30.69319916 -47.7641983
rradius  -5.16745672e-007 2.214343908e-008 60.78879929
rwrist  -0.0001064338358 0.02974390797 -168.7359924
rhand  -1.775242907e-031 5.986219883 -7.881830215
rfingers  -90 -7.125020027 -90
rthumb  -84.88329923 -8.341505645 -58.31643225
rfemur  -11.50959301 15.83797073 13.68258286
rtibia  -1.271869898 -0.3182778955 20.83283234
rfoot  0.04370407015 -20.79473305 -37.577034
rtoes  4.099939364 19.59211694 -102.066185
lfemur  -7.141993523 -17.0834465 -20.29780579
ltibia  3.113430023 -0.2930803001 13.84643745
lfoot  0.7271983027 -24.5106945 36.23374939
ltoes  -8.506763157 -18.16811184 -115.6267749
344
root  34.73587036 36.51860755 -14.82223901 8.155168533 -2.880105495 3.485713243
lowerback  -7.795020103 -0.3231369853 -0.465115279
upperback  -3.57310009 -0.000370986003 -3.004590034
thorax  0.6790850163 0.1354189962 -2.83626008
lowerneck  -14.52779961 2.530610085 2.371340036
upperneck  17.43000031 2.526010036 4.087269783
head  7.76101017 1.914229989 1.251204967
lclavicle  0 -4.497500157e-015 -2.743230041e-014
lhumerus  -46.19929886 27.12789917 67.08850098
lradius  0.01395778079 -6.507048965e-006 31.00798416
lwrist  4.824992743e-007 -3.790274832e-007 -25.52599907
lhand  -4.405300586e-031 -36.72040176 -10.72439957
lfingers  90 7.125020027 -90
lthumb  94.74225044 -25.56571091 100.8814038
rclavicle  0 -4.497500157e-015 -2.743230041e-014
rhumerus  -57.19779968 -31.36680031 -47.62239838
rradius  -5.16745672e-007 2.214343908e-008 59.48659897
rwrist  -0.0001064338358 0.02974390797 -167.9409943
rhand  -1.775242907e-031 5.986219883 -7.881830215
rfingers  -90 -7.125020027 -90
rthumb  -84.88329923 -8.341505645 -58.31643225
rfemur  -11.47616863 15.83482361 13.7018919
rtibia  -1.278312922 -0.2967762053 20.79554939
rfoot  0.05568954349 -20.73785591 -37.6206665
rtoes  4.099939364 19.59211694 -102.066185
lfemur  -7.154410839 -17.07135391 -20.27384758
ltibia  3.095796347 -0.2682776153 13.87612057
lfoot  0.7261970639 -24.58187294 36.1914711
ltoes  -8.506763157 -18.16811184 -115.6267749
345
root  34.73487313 36.51781458 -14.82132439 8.157000542 -2.82384491 3.494511366
lowerback  -7.811529636 -0.3059709668 -0.4521981776
upperback  -3.562459946 0.02073889971 -2.993920088
thorax  0.7001550198 0.1454959959 -2.830770016
lowerneck  -14.49629974 2.517339945 2.365780115
upperneck  17.35630035 2.510689974 4.077750206
head  7.731200218 1.902690053 1.247990012
lclavicle  0 -4.497500157e-015 -2.743230041e-014
lhumerus  -46.11999893 27.02779961 67.19830322
lradius  0.01410934608 -6.507048965e-006 31.01109886
lwrist  4.824992743e-007 -3.790274832e-007 -25.35250092
lhand  -4.405300586e-031 -36.72040176 -10.72439957
lfingers  90 7.125020027 -90
lthumb  94.74225044 -25.56571091 100.8814038
rclavicle  0 -4.497500157e-015 -2.743230041e-014
rhumerus  -57.13240051 -31.99270058 -47.33969879
rradius  -5.16745672e-007 2.214343908e-008 57.95759964
rwrist  -0.0001064338358 0.02974390797 -167.3589935
rhand  -1.775242907e-031 5.986219883 -7.881830215
rfingers  -90 -7.125020027 -90
rthumb  -84.88329923 -8.341505645 -58.31643225
rfemur  -11.48316097 15.80159569 13.70522881
rtibia  -1.279042244 -0.2848683298 20.820858
rfoot  0.03908118606 -20.71487808 -37.64953995
rtoes  4.099939364 19.59211694 -102.066185
lfemur  -7.128365993 -17.10546112 -20.28952217
ltibia  3.121540785 -0.2736358941 13.82070541
lfoot  0.7010084987 -24.53572845 36.15116501
ltoes  -8.506763157 -18.16811184 -115.6267749
346
root  34.73304088 36.51703061 -14.82078973 8.13071537 -2.756046772 3.475642204
lowerback  -7.801586628 -0.2890636325 -0.4637356699
upperback  -3.583489895 0.04326320067 -2.971369982
thorax  0.6760060191 0.1572850049 -2.796700001
lowerneck  -14.51900005 2.493669987 2.286269903
upperneck  17.37599945 2.492399931 4.084909916
head  7.74037981 1.889690042 1.262079954
lclavicle  0 -4.497500157e-015 -2.743230041e-014
lhumerus  -46.11869812 27.03829956 67.27680206
lradius  0.0125566721 -6.507048965e-006 31.00898552
lwrist  4.824992743e-007 -3.790274832e-007 -25.32789993
lhand  -4.405300586e-031 -36.72040176 -10.72439957
lfingers  90 7.125020027 -90
lthumb  94.74225044 -25.56571091 100.8814038
rclavicle  0 -4.497500157e-015 -2.743230041e-014
rhumerus  -57.11190033 -32.6393013 -46.97539902
rradius  -5.16745672e-007 2.214343908e-008 56.44589996
rwrist  -0.0001064338358 0.02974390797 -166.3549957
rhand  -1.775242907e-031 5.986219883 -7.881830215
rfingers  -90 -7.125020027 -90
rthumb  -84.88329923 -8.341505645 -58.31643225
rfemur  -11.43295383 15.81297112 13.74174595
rtibia  -1.26796329 -0.2423479408 20.80219841
rfoot  0.04252471775 -20.65477753 -37.70231247
rtoes  4.099939364 19.59211694 -102.066185
lfemur  -7.018438816 -17.08660126 -20.29706383
ltibia  3.173983574 -0.2233830988 13.70426655
lfoot  0.7017738819 -24.58690834 36.15396118
ltoes  -8.506763157 -18.16811184 -115.6267749
347
root  34.73069198 36.51563089 -14.82049236 8.080205917 -2.677919865 3.458044052
lowerback  -7.834760189 -0.2570310235 -0.4449493587
upperback  -3.608809948 0.08743280172 -2.959019899
thorax  0.6682109833 0.1800490022 -2.79324007
lowerneck  -14.55370045 2.445660114 2.147429943
upperneck  17.40740013 2.446969986 4.127570152
head  7.758927345 1.863332391 1.291890979
lclavicle  0 -4.497500157e-015 -2.743230041e-014
lhumerus  -46.09700012 26.94849968 67.41439819
lradius  0.01095896401 -6.507048965e-006 31.02180672
lwrist  4.824992743e-007 -3.790274832e-007 -25.27669907
lhand  -4.405300586e-031 -36.72040176 -10.72439957
lfingers  90 7.125020027 -90
lthumb  94.74225044 -25.56571091 100.8814038
rclavicle  0 -4.497500157e-015 -2.743230041e-014
rhumerus  -57.12699509 -33.35430145 -46.54260254
rradius  -5.16745672e-007 2.214343908e-008 54.92959976
rwrist  -0.0001064338358 0.02974390797 -165.1139984
rhand  -1.775242907e-031 5.986219883 -7.881830215
rfingers  -90 -7.125020027 -90
rthumb  -84.88329923 -8.341505645 -58.31643225
rfemur  -11.35922337 15.82910538 13.79087543
rtibia  -1.261086822 -0.1849934161 20.79138374
rfoot  0.04459454492 -20.57338333 -37.76300812
rtoes  4.099939364 19.59211694 -102.066185
lfemur  -6.895941734 -17.0375042 -20.30123329
ltibia  3.223365784 -0.1648674607 13.59727383
lfoot  0.7073466182 -24.66751289 36.13994217
ltoes  -8.506763157 -18.16811184 -115.6267749
